<svg width="18" height="18" viewBox="0 0 18 18" fill="none" xmlns="http://www.w3.org/2000/svg">
<path d="M17 14.0002V8.45222V8.45147C17 7.91764 17 7.65058 16.9351 7.40205C16.8775 7.18171 16.7827 6.97275 16.6548 6.78432C16.5104 6.5717 16.3096 6.39581 15.9074 6.04395L11.1074 1.84395C10.3608 1.19066 9.98751 0.864064 9.56738 0.739821C9.19719 0.630346 8.80281 0.630346 8.43262 0.739821C8.01272 0.863996 7.63979 1.19031 6.894 1.84288L6.89278 1.84395L2.09277 6.04395L2.09182 6.04479C1.69032 6.39609 1.48944 6.57187 1.34521 6.78433C1.2173 6.97275 1.12255 7.18171 1.06497 7.40205C1 7.65069 1 7.91788 1 8.45222V14.0002C1 14.932 1 15.3979 1.15224 15.7654C1.35523 16.2555 1.74481 16.6449 2.23486 16.8479C2.60241 17.0001 3.06835 17.0001 4.00023 17.0001C4.93211 17.0001 5.39782 17.0001 5.76537 16.8479C6.25542 16.6449 6.64467 16.2555 6.84766 15.7654C6.9999 15.3979 7 14.932 7 14.0001V13.0001C7 11.8955 7.89543 11.0001 9 11.0001C10.1046 11.0001 11 11.8955 11 13.0001V14.0001C11 14.932 11 15.3979 11.1522 15.7654C11.3552 16.2555 11.7448 16.6449 12.2349 16.8479C12.6024 17.0001 13.0683 17.0001 14.0002 17.0001C14.9321 17.0001 15.3978 17.0001 15.7654 16.8479C16.2554 16.6449 16.6447 16.2555 16.8477 15.7654C16.9999 15.3979 17 14.932 17 14.0002Z" stroke="currentColor" stroke-linecap="round" stroke-linejoin="round"/>
</svg>
