<svg width="22" height="22" viewBox="0 0 22 22" fill="none" xmlns="http://www.w3.org/2000/svg">
<path d="M19.35 7.923L18.9838 7.71927C18.9269 7.68763 18.8984 7.67176 18.871 7.65531C18.5979 7.49172 18.3679 7.26529 18.1999 6.99489C18.183 6.96768 18.1664 6.93956 18.1338 6.88317L18.1337 6.88295C18.1012 6.82663 18.0848 6.7983 18.0697 6.77005C17.919 6.48873 17.8379 6.17547 17.8331 5.85638C17.8326 5.82759 17.8331 5.79813 17.834 5.74528L17.8343 5.72624L17.8414 5.30924C17.8529 4.6232 17.8586 4.28024 17.7626 3.97269C17.6776 3.7006 17.5357 3.44977 17.3459 3.23709C17.1317 2.99711 16.8348 2.82601 16.2424 2.48461L16.2393 2.48283L15.7455 2.19827C15.1526 1.85664 14.8561 1.6859 14.5414 1.62076C14.2629 1.56313 13.9754 1.56543 13.698 1.62772C13.3851 1.69794 13.0926 1.8731 12.5086 2.22282L12.5041 2.2255L12.1503 2.43736C12.0943 2.47086 12.066 2.48757 12.038 2.50316C11.7597 2.65788 11.4485 2.74397 11.1303 2.75418C11.0982 2.75521 11.0656 2.75521 11.0004 2.75521H10.9995C10.9347 2.75521 10.9025 2.75521 10.8705 2.75418C10.5516 2.74392 10.2394 2.65745 9.96068 2.50209C9.93362 2.487 9.90672 2.47085 9.85463 2.43958L9.84863 2.43597L9.49255 2.2222L9.48987 2.22059C8.9023 1.86784 8.60823 1.6913 8.29382 1.62076C8.01525 1.55826 7.72629 1.55616 7.44683 1.61453C7.13092 1.68052 6.83353 1.85309 6.239 2.19815L5.75134 2.48119C5.1599 2.82445 4.8646 2.99601 4.65124 3.23616C4.46248 3.44862 4.32109 3.69888 4.23664 3.97025C4.14119 4.27698 4.14657 4.61891 4.15807 5.30264L4.16522 5.7273C4.1663 5.79161 4.16702 5.82379 4.16655 5.85542C4.16182 6.17516 4.0804 6.48909 3.92929 6.77091C3.91434 6.79878 3.89824 6.82665 3.86608 6.88232C3.8339 6.93803 3.81783 6.96582 3.80114 6.99271C3.63242 7.26456 3.40094 7.49205 3.12613 7.65592C3.09895 7.67212 3.07104 7.68771 3.01476 7.7189L2.65319 7.91927L2.65307 7.91934C2.05158 8.25266 1.7509 8.41929 1.5321 8.65669C1.33853 8.86672 1.19195 9.1158 1.10269 9.38712C1.00192 9.69341 1.0027 10.0368 1.00426 10.7228L1.00427 10.7255L1.00554 11.2876L1.00556 11.2937C1.0071 11.9728 1.00787 12.3133 1.1087 12.617C1.19816 12.8865 1.344 13.1338 1.53649 13.3426C1.75383 13.5783 2.05212 13.7442 2.64782 14.0756L2.64977 14.0767L3.00811 14.276L3.01309 14.2788C3.07079 14.3109 3.10054 14.3275 3.12914 14.3447C3.40145 14.5087 3.63043 14.7352 3.79772 15.0055C3.81579 15.0347 3.83314 15.065 3.86781 15.1256L3.86784 15.1256C3.9021 15.1855 3.91943 15.2154 3.93528 15.2454C4.08195 15.5231 4.16121 15.8314 4.16657 16.1454C4.16715 16.1793 4.16661 16.2139 4.16544 16.2829L4.15856 16.6904L4.15854 16.6919C4.14697 17.377 4.14119 17.7197 4.23713 18.027C4.32208 18.2991 4.46438 18.5499 4.65417 18.7626C4.86869 19.003 5.1656 19.1744 5.76013 19.517L6.25383 19.8015C6.84668 20.1431 7.14354 20.3139 7.45828 20.379C7.73673 20.4366 8.02419 20.4343 8.30163 20.372C8.61457 20.3017 8.90718 20.1265 9.49174 19.7765L9.49548 19.7743L9.8493 19.5624C9.90528 19.5289 9.93344 19.5122 9.96149 19.4966C10.2398 19.3419 10.5508 19.2558 10.869 19.2456C10.9011 19.2445 10.9337 19.2445 10.9989 19.2445C11.0643 19.2445 11.0975 19.2445 11.1296 19.2456C11.4485 19.2558 11.7602 19.3422 12.0389 19.4976C12.067 19.5132 12.0952 19.5301 12.1512 19.5638L12.5073 19.7775L12.508 19.7779C13.0969 20.1315 13.3913 20.3083 13.7061 20.3789C13.9847 20.4414 14.2731 20.4436 14.5526 20.3852C14.8685 20.3193 15.1661 20.1467 15.7606 19.8016L16.2483 19.5186C16.8397 19.1753 17.1351 19.0037 17.3484 18.7636C17.5372 18.5511 17.6786 18.3009 17.7631 18.0295C17.8585 17.7228 17.853 17.3809 17.8415 16.6972L17.8343 16.2725L17.834 16.251C17.8331 16.2006 17.8326 16.1723 17.833 16.1444C17.8378 15.8247 17.9191 15.5107 18.0702 15.2289C18.0851 15.2011 18.1012 15.1732 18.1333 15.1177L18.1334 15.1175C18.1656 15.0618 18.1819 15.0339 18.1986 15.007C18.3674 14.7351 18.5986 14.5078 18.8734 14.3439C18.8997 14.3282 18.9271 14.3131 18.9797 14.2839L18.9852 14.2808L19.3468 14.0805C19.9484 13.7471 20.2489 13.5805 20.4677 13.3431C20.6613 13.133 20.8076 12.884 20.8968 12.6127C20.9977 12.306 20.9973 11.9621 20.9958 11.2743L20.9945 10.7122C20.993 10.029 20.9921 9.68735 20.891 9.38272C20.8015 9.11322 20.6556 8.86592 20.4631 8.65716C20.2455 8.42119 19.947 8.25512 19.35 7.923Z" stroke="#0B0B0B" stroke-width="1.2" stroke-linecap="round" stroke-linejoin="round"/>
</svg>
