<svg width="13" height="13" viewBox="0 0 13 13" fill="none" xmlns="http://www.w3.org/2000/svg">
<path d="M6.61478 12.2154H5.5767C5.11963 12.2154 4.74776 11.8443 4.74776 11.388V10.3098C4.74776 10.2818 4.73074 10.2572 4.70543 10.2487C4.17018 10.0687 4.13675 9.96531 4.0726 10.0294L3.28884 10.8118C2.96494 11.1352 2.44051 11.1352 2.11645 10.8118L1.38238 10.0792C1.05842 9.75582 1.05839 9.23254 1.38243 8.90914L2.16634 8.1269C2.18621 8.10705 2.19055 8.07567 2.17712 8.04879C1.92107 7.53653 1.97755 7.45305 1.88548 7.45305H0.828951C0.371875 7.45305 0 7.08192 0 6.62572V5.58967C0 5.13346 0.371875 4.76234 0.828951 4.76234H1.87737C1.90519 4.76234 1.93034 4.74507 1.93852 4.72035C2.12475 4.1578 2.23293 4.13116 2.16631 4.06463L1.38243 3.28244C1.05844 2.9591 1.05837 2.43579 1.38236 2.11235L2.11647 1.3797C2.44044 1.05633 2.96492 1.05636 3.28884 1.37977L4.07257 2.16215C4.13608 2.22556 4.18151 2.11907 4.70541 1.94289C4.73075 1.93439 4.74773 1.90984 4.74773 1.88183V0.827333C4.74776 0.371129 5.11963 0 5.5767 0H6.61478C7.07184 0 7.44372 0.371129 7.44372 0.827333V1.87374C7.44372 1.96772 7.53942 1.9105 8.06934 2.17525C8.09331 2.18724 8.12286 2.18198 8.14278 2.1621L8.92655 1.37977C9.25041 1.05638 9.77483 1.05631 10.0989 1.37972L10.833 2.11235C11.1569 2.43574 11.157 2.95908 10.8329 3.28244L10.0491 4.06465C9.98242 4.13118 10.0905 4.15768 10.2769 4.72035C10.2851 4.74512 10.3102 4.76238 10.338 4.76238H11.3864C11.8435 4.76238 12.2154 5.13351 12.2154 5.58971V6.62576C12.2154 7.08197 11.8435 7.4531 11.3864 7.4531H10.3299C10.2379 7.4531 10.2935 7.53811 10.0382 8.04887C10.0248 8.07567 10.0291 8.10712 10.0491 8.12697L10.8329 8.90921C11.1569 9.23254 11.157 9.75582 10.833 10.0793L10.0989 10.8119C9.77506 11.1352 9.25049 11.1353 8.92655 10.8118L8.14278 10.0295C8.12286 10.0097 8.09331 10.0044 8.06934 10.0164C7.54133 10.2802 7.44372 10.2238 7.44372 10.3179V11.3881C7.44372 11.8443 7.07184 12.2154 6.61478 12.2154ZM4.11838 9.2488C4.42477 9.2488 4.47294 9.36645 4.94917 9.52663C5.28535 9.63962 5.51121 9.95439 5.51121 10.3098V11.388C5.51121 11.4241 5.54058 11.4534 5.5767 11.4534H6.61478C6.65089 11.4534 6.68027 11.4241 6.68027 11.388V10.3178C6.68027 9.9602 6.90775 9.64496 7.24632 9.53334C7.4107 9.47914 7.57263 9.41234 7.72761 9.33492C8.04613 9.17582 8.42992 9.23842 8.6827 9.49074L9.4664 10.2731C9.49212 10.2987 9.53343 10.2986 9.559 10.2731C10.3555 9.47815 10.3123 9.53296 10.3123 9.49418C10.3123 9.4557 10.3651 9.51991 9.50923 8.66575C9.25683 8.4138 9.19483 8.02917 9.35501 7.70867C9.4286 7.56142 9.49258 7.40781 9.54518 7.25204C9.65841 6.9165 9.97379 6.69108 10.3299 6.69108H11.3864C11.4225 6.69108 11.4519 6.66177 11.4519 6.62572V5.58967C11.4519 5.55362 11.4225 5.52431 11.3864 5.52431H10.338C9.97959 5.52431 9.66375 5.29726 9.5519 4.95932C9.49762 4.79536 9.43074 4.63375 9.35317 4.479C9.19369 4.16113 9.25644 3.77803 9.50923 3.52577L10.2931 2.74356C10.3188 2.71794 10.3187 2.67667 10.2931 2.65112C9.49663 1.85623 9.55152 1.89934 9.51274 1.89934C9.47418 1.89934 9.53854 1.84652 8.6827 2.70081C8.43 2.95312 8.0462 3.01577 7.72761 2.85661C7.57263 2.77921 7.4107 2.71246 7.24632 2.65827C6.90778 2.54663 6.68027 2.23135 6.68027 1.87374V0.827333C6.68027 0.791282 6.65089 0.761974 6.61478 0.761974H5.5767C5.54058 0.761974 5.51121 0.791282 5.51121 0.827333V1.88181C5.51121 2.2372 5.28535 2.55192 4.94917 2.66498C4.79306 2.71748 4.63913 2.78132 4.49164 2.85476C4.17042 3.0147 3.78508 2.95281 3.53269 2.70088L2.74895 1.9185C2.72326 1.89289 2.68191 1.89296 2.65633 1.9185C1.85985 2.71341 1.90306 2.65862 1.90306 2.69739C1.90306 2.73584 1.85015 2.67164 2.7061 3.52579C2.95892 3.77808 3.02165 4.16116 2.86218 4.47907C2.7846 4.63378 2.71772 4.79539 2.66344 4.95938C2.55159 5.29726 2.23572 5.52431 1.87737 5.52431H0.828951C0.792831 5.52431 0.763461 5.55362 0.763461 5.58967V6.62572C0.763461 6.66177 0.792831 6.69108 0.828951 6.69108H1.88548C2.24156 6.69108 2.55689 6.9165 2.67018 7.25201C2.72275 7.40784 2.78674 7.56147 2.86032 7.70867C3.02053 8.02925 2.95857 8.41388 2.70617 8.66575L1.92222 9.44799C1.89655 9.47364 1.89662 9.51487 1.92224 9.54044C2.71868 10.3353 2.66378 10.2922 2.70262 10.2922C2.74115 10.2922 2.6769 10.345 3.53269 9.49067C3.69159 9.3321 3.90328 9.2488 4.11838 9.2488Z" fill="currentColor"/>
<path d="M6.1082 8.57342C4.74003 8.57342 3.62695 7.46252 3.62695 6.09702C3.62695 4.73151 4.74003 3.62061 6.1082 3.62061C7.47636 3.62061 8.58946 4.73151 8.58946 6.09702C8.58946 7.46252 7.47636 8.57342 6.1082 8.57342ZM6.1082 4.38258C5.16101 4.38258 4.39041 5.15167 4.39041 6.09702C4.39041 7.04236 5.16101 7.81148 6.1082 7.81148C7.05538 7.81148 7.826 7.04236 7.826 6.09702C7.826 5.15167 7.05538 4.38258 6.1082 4.38258Z" fill="currentColor"/>
</svg>
